<?xml version="1.0" encoding="UTF-8"?>
<svg version="1.1" xmlns="http://www.w3.org/2000/svg" width="512" height="512">
<path d="M0 0 C168.96 0 337.92 0 512 0 C512 168.96 512 337.92 512 512 C343.04 512 174.08 512 0 512 C0 343.04 0 174.08 0 0 Z " fill="#000000" transform="translate(0,0)"/>
<path d="M0 0 C31.68 0 63.36 0 96 0 C106.16601456 28.23024042 116.25642103 56.4776817 126.125 84.8125 C126.59314593 86.15651584 127.06129575 87.50053033 127.52944946 88.84454346 C127.87714087 89.84273385 127.87714087 89.84273385 128.23185635 90.86108971 C129.3900734 94.18609981 130.54846061 97.51105058 131.70703125 100.8359375 C131.93331522 101.48537449 132.15959919 102.13481148 132.39274025 102.80392838 C136.82739983 115.52882302 141.30712145 128.23748526 145.8125 140.9375 C146.15510864 141.90336029 146.49771729 142.86922058 146.85070801 143.86434937 C148.55428358 148.66593438 150.25896921 153.46712423 151.96435547 158.26806641 C155.43956973 168.05193832 158.90766238 177.83833441 162.375 187.625 C162.72252319 188.60569458 163.07004639 189.58638916 163.42810059 190.59680176 C169.56490381 207.91685519 175.66442307 225.2499102 181.75671387 242.58566284 C188.19359117 260.89940247 194.67451436 279.19713059 201.18969727 297.4831543 C201.50857407 298.37828735 201.82745087 299.27342041 202.1559906 300.19567871 C202.74774782 301.85644252 203.33981898 303.51709452 203.93226624 305.1776123 C204.97798574 308.11142578 206.01504182 311.04512547 207 314 C210.38025048 305.95662053 213.14941777 297.74816014 215.8515625 289.45703125 C216.3148715 288.04334532 216.77844998 286.62974768 217.24227905 285.2162323 C218.46115698 281.4989893 219.67603014 277.78044916 220.89013672 274.06164551 C221.85205391 271.11757173 222.81684847 268.17444521 223.78180695 265.23136711 C228.79075721 249.95366221 233.76146857 234.66404348 238.68763351 219.3594532 C243.04900724 205.81278171 247.48189449 192.28998247 251.92785645 178.77087402 C254.22505633 171.78551112 256.51878514 164.79900786 258.8125 157.8125 C259.03934731 157.12160027 259.26619461 156.43070053 259.49991608 155.71886444 C263.43434563 143.7350039 267.35055852 131.74529217 271.25 119.75 C276.31766698 104.16152209 281.40367703 88.57913429 286.5 73 C292.61456487 54.30758899 298.71472895 35.61055272 304.79882812 16.90820312 C305.07674194 16.05396255 305.35465576 15.19972198 305.64099121 14.31959534 C306.15616654 12.73592465 306.67122949 11.1522174 307.18615723 9.56846619 C308.11605207 6.70952843 309.0492998 3.85210059 310 1 C319.57 1 329.14 1 339 1 C337.73232581 7.33837093 336.57930805 12.74868667 334.5390625 18.73828125 C334.3072226 19.4257695 334.07538269 20.11325775 333.83651733 20.82157898 C333.10511366 22.98722698 332.3655271 25.14995677 331.625 27.3125 C330.65618558 30.16185933 329.69079851 33.01236965 328.7265625 35.86328125 C328.37189911 36.90961227 328.37189911 36.90961227 328.0100708 37.9770813 C326.24510203 43.20809073 324.60840571 48.47166894 323.00537109 53.75463867 C320.91119532 60.51468688 318.61384346 67.20974151 316.35449219 73.91601562 C314.16459522 80.42256838 311.99937691 86.9317658 310 93.5 C307.60814711 101.35757296 304.97652762 109.1332115 302.35449219 116.91601562 C299.79837619 124.51066681 297.32972408 132.12275885 294.99609375 139.7890625 C292.90472385 146.53065489 290.61051557 153.20635486 288.35546875 159.89453125 C286.51432675 165.37999555 284.71629024 170.87065597 283.03125 176.40625 C280.62715341 184.29454316 277.98705129 192.10197483 275.35449219 199.91601562 C273.16459522 206.42256838 270.99937691 212.9317658 269 219.5 C266.60814711 227.35757296 263.97652762 235.1332115 261.35449219 242.91601562 C258.79837619 250.51066681 256.32972408 258.12275885 253.99609375 265.7890625 C251.90472385 272.53065489 249.61051557 279.20635486 247.35546875 285.89453125 C245.51432675 291.37999555 243.71629024 296.87065597 242.03125 302.40625 C239.62715341 310.29454316 236.98705129 318.10197483 234.35449219 325.91601562 C232.17906952 332.37956278 230.02833558 338.84387683 228.0625 345.375 C225.58910422 353.31984705 222.76938101 361.15342048 220 369 C190.96 369 161.92 369 132 369 C123.97766067 348.37112744 123.97766067 348.37112744 121.40625 340.9921875 C120.94957443 339.69510109 120.94957443 339.69510109 120.4836731 338.37181091 C119.82904213 336.51224809 119.17558892 334.65227029 118.52325439 332.79190063 C116.68712826 327.55781855 114.83964198 322.32774854 112.9921875 317.09765625 C112.59607269 315.97600571 112.19995789 314.85435516 111.7918396 313.69871521 C107.03107853 300.23473024 102.19731659 286.7970338 97.36174011 273.35978317 C96.6224494 271.3054123 95.88328782 269.25099501 95.14416504 267.19656372 C93.1782893 261.73236922 91.21232394 256.268207 89.24597168 250.80418396 C84.57029513 237.81066653 79.90834502 224.81224057 75.25 211.8125 C74.47412317 209.64754157 73.69824427 207.48258389 72.92236328 205.31762695 C71.38499004 201.0277055 69.84773908 196.73774024 68.31054688 192.44775391 C64.77197059 182.57263549 61.23166468 172.6981371 57.69152832 162.82357788 C55.71095175 157.29907598 53.73048111 151.77453612 51.75 146.25 C50.95833384 144.04166648 50.16666718 141.83333315 49.375 139.625 C47 133 47 133 44.625 126.375 C44.23317535 125.28202103 43.84135071 124.18904205 43.43765259 123.0629425 C42.64546301 120.85313928 41.85328773 118.64333092 41.06112671 116.43351746 C39.09007741 110.93513154 37.11878503 105.43683302 35.14697266 99.9387207 C31.48763752 89.73440247 27.83056357 79.52929253 24.1819458 69.32113647 C22.48770711 64.58143345 20.79211705 59.84221435 19.09643555 55.10302734 C18.30068176 52.87784335 17.50556513 50.65243137 16.71118164 48.42675781 C15.59821772 45.30863312 14.48337808 42.19118979 13.3671875 39.07421875 C13.01263489 38.083685 12.65808228 37.09315125 12.29278564 36.07260132 C10.38773324 30.77554323 8.44161455 25.49667475 6.44628906 20.23291016 C6.02815948 19.12937698 5.61002991 18.02584381 5.17922974 16.88887024 C4.3736765 14.77082886 3.56355539 12.65451756 2.7482605 10.54020691 C2.38805817 9.59470474 2.02785583 8.64920258 1.65673828 7.67504883 C1.33617462 6.8424202 1.01561096 6.00979156 0.68533325 5.15193176 C0 3 0 3 0 0 Z " fill="#FCFCFC" transform="translate(86,72)"/>
<path d="M0 0 C11.88 0 23.76 0 36 0 C41.86157276 15.5197131 47.58251662 31.07706929 53.13842773 46.70849609 C55.09066029 52.20095687 57.04839455 57.69145617 59.0054245 63.18220901 C59.67992623 65.07488865 60.35417984 66.96765652 61.02838135 68.86044312 C65.50071062 81.41350215 69.99892909 93.95722449 74.5 106.5 C80.61429392 123.54172795 86.71241693 140.58914433 92.79714966 157.64144897 C100.25088391 178.52998956 107.73606802 199.40686177 115.25512695 220.27197266 C120.51515142 234.86921798 125.76294338 249.47081132 130.99996948 264.07632446 C131.81924935 266.36119143 132.6386815 268.64600381 133.45828247 270.93075562 C135.3134247 276.10255192 137.16645085 281.27507582 139.01367188 286.44970703 C140.28951931 290.02283653 141.57735975 293.59120469 142.87695312 297.15576172 C143.4336341 298.69627448 143.99027739 300.23680086 144.546875 301.77734375 C144.79955139 302.46107559 145.05222778 303.14480743 145.31256104 303.84925842 C146.50016369 307.15599851 147 309.42371741 147 313 C135.45 313 123.9 313 112 313 C106.37568427 299.50164224 106.37568427 299.50164224 104.62255859 294.51196289 C104.22303482 293.38049835 103.82351105 292.24903381 103.41188049 291.08328247 C102.99494431 289.89177582 102.57800812 288.70026917 102.1484375 287.47265625 C101.69258747 286.17833972 101.23639605 284.88414337 100.77989197 283.59005737 C99.81168907 280.84370777 98.84542796 278.09668656 97.88076782 275.34909058 C95.56662555 268.75863713 93.24143913 262.17207656 90.91705513 255.58522987 C90.39060198 254.09322596 89.86426959 252.60117943 89.33805656 251.10909081 C84.37476533 237.03561174 79.35825424 222.98163433 74.3125 208.9375 C73.53797145 206.78061085 72.76347609 204.62370977 71.98901367 202.46679688 C70.82798943 199.23346297 69.66692066 196.00014514 68.50563049 192.76690674 C64.05374723 180.36990895 59.61846441 167.966988 55.1875 155.5625 C54.77651062 154.41203186 54.36552124 153.26156372 53.94207764 152.07623291 C49.11876882 138.57158095 44.30830835 125.06242224 39.515625 111.546875 C39.28596731 110.89923502 39.05630962 110.25159504 38.81969261 109.58432961 C36.73123513 103.69447673 34.64333628 97.80442591 32.55606079 91.91415405 C27.56922843 77.84213567 22.57006208 63.77475854 17.52734375 49.72265625 C17.08923874 48.50175797 16.65113373 47.28085968 16.19975281 46.02296448 C14.13188352 40.26278798 12.06146788 34.50353815 9.98803711 28.74536133 C9.61308609 27.70250473 9.23813507 26.65964813 8.8518219 25.58518982 C8.16521019 23.67555374 7.47753175 21.76630063 6.78843689 19.8575592 C4.42013317 13.2670969 2.21633198 6.64899594 0 0 Z " fill="#010101" transform="translate(126,100)"/>
</svg>
